<svg id="Layer_1" data-name="Layer 1" xmlns="http://www.w3.org/2000/svg" viewBox="0 0 850.39 658.83"><defs><style>.cls-1{fill:#3f5eab;fill-rule:evenodd;}</style></defs><path class="cls-1" d="M112.78,47.65C192.53,164.25,366,220.43,437.52,210.07,412.26,41.15,584-41.85,705.93,67.53c21.53-1,69.47-17,96.1-36.46-13.45,38.73-46.86,72.05-66.28,82.87,18.63,6,47.28-3.06,86.16-23.2-12,23.58-47.57,59.72-76.21,79.55,17.49,225-219.19,613.44-679.31,401.08,119.41,6.71,181.42-36.1,225.33-69.61C205,496,149.44,423.9,149.23,399c20.61,2.2,45.85,0,66.27-3.31C121.61,358,84.71,293.17,92.9,239.9c15.3,11.62,43.25,16.5,69.58,13.26C93.84,205.24,68.92,120.22,112.78,47.65Z"/></svg>