<svg id="Layer_1" data-name="Layer 1" xmlns="http://www.w3.org/2000/svg" viewBox="0 0 850.39 658.83"><defs><style>.cls-1{fill:#3056e2;fill-rule:evenodd;}</style></defs><path class="cls-1" d="M720.33,107.54C625.85,37.27,538.08,34.62,538.08,34.62l-6.63,13.26s121.31,32.83,169,96.12C518.51,36.32,302.4,58.64,150.37,144c62.26-69,169-96.12,169-96.12L312.75,31.3s-114.53,15-182.26,76.24C93.25,148,16.2,376.38,21.14,508.62,110.63,616.15,259.73,618,259.73,618l26.51-36.46s-115.49-36-155.75-112.7c179.1,148.46,470.63,106.9,593.15,0-56.85,77.94-159,112.7-159,112.7l29.82,39.78S749.56,608,829.68,508.62C829.07,348.21,750.09,130.94,720.33,107.54Zm-424,385.54c-53.83,0-66.28-51.52-66.28-72.92s6.79-76.24,59.65-76.24c57.18,0,69.59,48.78,69.59,69.61S350.2,493.08,296.37,493.08Zm241.9,0c-51.43,0-69.59-48.54-69.59-76.24s20.5-76.23,63-76.23c46.4,0,66.27,41.48,66.27,69.61S589.69,493.08,538.27,493.08Z"/></svg>