<svg id="Layer_1" data-name="Layer 1" xmlns="http://www.w3.org/2000/svg" viewBox="0 0 850.39 658.83"><defs><style>.cls-1{fill:#3056e2;fill-rule:evenodd;}</style></defs><path class="cls-1" d="M737,26.62c-20.72,8.94-667.64,249.85-687.42,256s-22.54,33-4.65,38.55,177.51,56.51,177.51,56.51S285,572.08,292.21,587.72s28,12.55,37.89,3.33,99.06-91.75,99.06-91.75,151.28,114,171.52,128.31,45,5.38,51.19-17.28S768.09,70.72,771.54,51.22,757.68,17.69,737,26.62Zm-97.06,115C630,151.18,325.45,427.5,325.45,427.5l-13.3,114.35L257,361s361.15-225.95,371-234S649.84,132.09,639.91,141.64Z"/></svg>